<svg xmlns="http://www.w3.org/2000/svg" xmlns:xlink="http://www.w3.org/1999/xlink" id="Layer_1" x="0" y="0" version="1.1" viewBox="0 0 100 100" xml:space="preserve" style="enable-background:new 0 0 100 100"><style type="text/css">.st0{fill:#ec4331}</style><path d="M50,0C22.4,0,0,22.4,0,50s22.4,50,50,50s50-22.4,50-50S77.6,0,50,0z M66.7,35l-3.5,2.8	c-0.2-0.2-0.5-0.4-0.7-0.6c-6.2-4.7-15.5-2.8-20.8,4.4c-5.4,7.1-4.7,16.6,1.5,21.3c4.7,3.5,11.1,3.2,16.3-0.1l3.3,2.6	c-7,5.5-16.3,6.3-22.9,1.3c-8.1-6.1-9-18.5-2-27.7c6.9-9.2,19.1-11.8,27.2-5.6C65.7,33.8,66.3,34.4,66.7,35L66.7,35z" class="st0"/></svg>